<?xml version="1.0" ?><svg height="32" id="icon" viewBox="0 0 32 32" width="32" xmlns="http://www.w3.org/2000/svg"><defs><style>
      .cls-1 {
        fill: none;
      }
    </style></defs><title/><path d="M28,2H4A2.0023,2.0023,0,0,0,2,4V28a2.0023,2.0023,0,0,0,2,2H28a2.0023,2.0023,0,0,0,2-2V4A2.0023,2.0023,0,0,0,28,2Zm0,12H23V4h5ZM16,4h5V14H16ZM14,4V20H4V4ZM4,22H14v6H4Zm12,6V16H28V28Z"/><rect class="cls-1" data-name="&lt;Transparent Rectangle&gt;" height="32" id="_Transparent_Rectangle_" width="32"/></svg>